<mxfile host="app.diagrams.net" modified="2024-02-06T03:11:25.484Z" agent="Mozilla/5.0 (Windows NT 10.0; Win64; x64) AppleWebKit/537.36 (KHTML, like Gecko) Chrome/121.0.0.0 Safari/537.36" version="22.1.21" etag="lraOL2uX-y-p_vZ7D2Qk" type="github">
  <diagram name="Halaman-1" id="PDJyF5j3v0vV4bVr4_Eh">
    <mxGraphModel>
      <root>
        <mxCell id="0" />
        <mxCell id="1" parent="0" />
      </root>
    </mxGraphModel>
  </diagram>
</mxfile>
